<?xml version="1.0" encoding="iso-8859-1"?>
<!-- Uploaded to: SVG Repo, www.svgrepo.com, Generator: SVG Repo Mixer Tools -->
<svg fill="#000000" height="800px" width="800px" version="1.1" id="Layer_1" xmlns="http://www.w3.org/2000/svg" xmlns:xlink="http://www.w3.org/1999/xlink" 
	 viewBox="0 0 512 512" xml:space="preserve">
<g>
	<g>
		<path d="M256.001,0C148.342,0,60.755,87.586,60.755,195.245c0,56.66,16.898,115.289,50.225,174.26
			c28.99,51.297,65.23,93.242,90.526,119.398C215.912,503.798,235.265,512,256,512c20.735,0,40.088-8.202,54.494-23.098
			c25.296-26.155,61.536-68.101,90.526-119.398c33.327-58.971,50.225-117.6,50.225-174.26C451.246,87.586,363.659,0,256.001,0z
			 M256.001,270.381c-41.43,0-75.136-33.706-75.136-75.136c0-41.43,33.705-75.136,75.136-75.136
			c41.43,0,75.136,33.706,75.136,75.136C331.137,236.675,297.431,270.381,256.001,270.381z"/>
	</g>
</g>
</svg>